<?xml version="1.0" encoding="UTF-8" standalone="no"?>
<svg
   xmlns:dc="http://purl.org/dc/elements/1.1/"
   xmlns:cc="http://creativecommons.org/ns#"
   xmlns:rdf="http://www.w3.org/1999/02/22-rdf-syntax-ns#"
   xmlns:svg="http://www.w3.org/2000/svg"
   xmlns="http://www.w3.org/2000/svg"
   xmlns:sodipodi="http://sodipodi.sourceforge.net/DTD/sodipodi-0.dtd"
   xmlns:inkscape="http://www.inkscape.org/namespaces/inkscape"
   width="64"
   height="64"
   viewBox="0 0 16.933333 16.933333"
   version="1.1"
   id="svg1688"
   style="enable-background:new"
   inkscape:version="1.0.2 (e86c8708, 2021-01-15)"
   sodipodi:docname="clover-64.svg"
   inkscape:export-filename="/Users/jeff/develop/projects/git/adept/adept.logos/clover-64.png"
   inkscape:export-xdpi="96"
   inkscape:export-ydpi="96">
  <sodipodi:namedview
     id="base"
     pagecolor="#ffffff"
     bordercolor="#666666"
     borderopacity="1.0"
     inkscape:pageopacity="0.0"
     inkscape:pageshadow="2"
     inkscape:zoom="6.2079746"
     inkscape:cx="29.861833"
     inkscape:cy="34.442746"
     inkscape:document-units="mm"
     inkscape:current-layer="layer1"
     showgrid="false"
     units="px"
     inkscape:pagecheckerboard="true"
     showguides="true"
     inkscape:guide-bbox="true"
     inkscape:window-width="1239"
     inkscape:window-height="809"
     inkscape:window-x="0"
     inkscape:window-y="23"
     inkscape:window-maximized="0"
     inkscape:document-rotation="0" />
  <defs
     id="defs1682">
    <filter
       inkscape:collect="always"
       style="color-interpolation-filters:sRGB"
       id="filter2317">
      <feBlend
         inkscape:collect="always"
         mode="normal"
         in2="BackgroundImage"
         id="feBlend2319" />
    </filter>
  </defs>
  <metadata
     id="metadata1685">
    <rdf:RDF>
      <cc:Work
         rdf:about="">
        <dc:format>image/svg+xml</dc:format>
        <dc:type
           rdf:resource="http://purl.org/dc/dcmitype/StillImage" />
        <dc:title></dc:title>
      </cc:Work>
    </rdf:RDF>
  </metadata>
  <g
     inkscape:label="Layer 1"
     inkscape:groupmode="layer"
     id="layer1"
     transform="translate(0,-280.06667)"
     style="filter:url(#filter2317)">
    <path
       inkscape:connector-curvature="0"
       id="path3291"
       d="m 5.0892233,280.33128 a 4.8246392,4.8183667 0 0 0 -4.82463966,4.81836 4.8246392,4.8183667 0 0 0 0.91677576,2.81799 5.5483372,5.5411239 0 0 1 2.5607338,-1.44051 1.9298555,1.9273469 0 0 1 -0.5827257,-1.37748 1.9298555,1.9273469 0 0 1 1.9298558,-1.92734 1.9298555,1.9273469 0 0 1 1.9298561,1.92734 4.8246392,4.8183667 0 0 1 1.4473917,-3.43486 4.8246392,4.8183667 0 0 0 -3.3772478,-1.3835 z"
       style="fill:#00ff00;fill-opacity:1;stroke:#0f05f5;stroke-width:0;stroke-linecap:square;stroke-linejoin:miter;stroke-miterlimit:4;stroke-dasharray:none;stroke-dashoffset:0;stroke-opacity:0.976959;paint-order:markers stroke fill" />
    <path
       inkscape:connector-curvature="0"
       id="path2408"
       d="m 15.751584,289.07737 a 5.5483372,5.5411239 0 0 1 -2.560735,1.44052 1.9298555,1.9273469 0 0 1 0.582726,1.37747 1.9298555,1.9273469 0 0 1 -1.929856,1.92733 1.9298555,1.9273469 0 0 1 -1.929856,-1.92733 4.8246392,4.8183667 0 0 1 -1.4473919,3.43486 4.8246392,4.8183667 0 0 0 3.3772479,1.3835 4.8246392,4.8183667 0 0 0 4.82464,-4.81836 4.8246392,4.8183667 0 0 0 -0.916775,-2.81799 z"
       style="fill:#0093ff;fill-opacity:0.991228;stroke:#0f05f5;stroke-width:0;stroke-linecap:square;stroke-linejoin:miter;stroke-miterlimit:4;stroke-dasharray:none;stroke-dashoffset:0;stroke-opacity:0.976959;paint-order:markers stroke fill" />
    <path
       id="path8730"
       d="m 5.0892202,296.71372 a 4.8246394,4.8183669 0 0 0 4.8246397,-4.81838 v -4.81836 H 5.0892202 a 4.8246394,4.8183669 0 0 0 -4.82463637,4.81836 4.8246394,4.8183669 0 0 0 4.82463637,4.81838 z m 0,-2.89103 A 1.9298557,1.9273471 0 0 1 3.159365,291.89534 1.9298557,1.9273471 0 0 1 5.0892202,289.968 h 1.9298559 v 1.92734 a 1.9298557,1.9273471 0 0 1 -1.9298559,1.92735 z"
       style="fill:#ff7d00;fill-opacity:0.672065;stroke:#0f05f5;stroke-width:0;stroke-linecap:square;stroke-linejoin:miter;stroke-miterlimit:4;stroke-dasharray:none;stroke-dashoffset:0;stroke-opacity:0.976959;paint-order:markers stroke fill"
       inkscape:connector-curvature="0" />
    <path
       id="path3289"
       d="m 11.843718,280.33126 a 4.8246394,4.8183669 0 0 0 -4.8246388,4.81838 v 4.81836 h 4.8246388 a 4.8246394,4.8183669 0 0 0 4.824638,-4.81836 4.8246394,4.8183669 0 0 0 -4.824638,-4.81838 z m 0,2.89102 a 1.9298557,1.9273471 0 0 1 1.929856,1.92736 1.9298557,1.9273471 0 0 1 -1.929856,1.92734 H 9.913863 v -1.92734 a 1.9298557,1.9273471 0 0 1 1.929855,-1.92736 z"
       style="fill:#ffcb2f;fill-opacity:1;stroke:#0f05f5;stroke-width:0;stroke-linecap:square;stroke-linejoin:miter;stroke-miterlimit:4;stroke-dasharray:none;stroke-dashoffset:0;stroke-opacity:0.976959;paint-order:markers stroke fill"
       inkscape:connector-curvature="0" />
    <path
       style="fill:#ffa96f;fill-opacity:0.59064329;stroke-width:0.0219797"
       d="m 4.455421,296.65952 c -0.8684594,-0.1182 -1.6667002,-0.45923 -2.3781762,-1.01626 -0.2249609,-0.17608 -0.6361287,-0.59876 -0.8177732,-0.84058 -0.64973569,-0.865 -0.97472927,-1.83446 -0.97472927,-2.90763 0,-1.16104 0.38493033,-2.2125 1.13816367,-3.10898 0.6259895,-0.74504 1.5287128,-1.30808 2.4798323,-1.54673 0.5084671,-0.12764 0.5423338,-0.1301 1.8749793,-0.13893 l 1.237157,-0.008 v 1.42746 1.42745 l -1.1051935,0.008 c -1.1955825,0.0103 -1.213301,0.0103 -1.5524073,0.14344 -0.3023071,0.1178 -0.6517543,0.39537 -0.8536836,0.67797 -0.4639539,0.64932 -0.4638316,1.58639 2.927e-4,2.23354 0.1121067,0.15637 0.3513895,0.39124 0.5049843,0.49578 0.5252202,0.35748 1.2897721,0.42155 1.8738914,0.15699 0.3483493,-0.15781 0.7044553,-0.47766 0.8836083,-0.79379 0.1184336,-0.209 0.2177516,-0.50803 0.2472707,-0.74454 0.013192,-0.10569 0.023232,-0.61117 0.023232,-1.16967 l -1e-6,-0.98351 h 1.4296025 1.4296033 v 1.13008 c 0,1.37508 -0.025426,1.6316 -0.2226983,2.24675 -0.5700502,1.77759 -2.1163948,3.06884 -3.9648833,3.31085 -0.3143835,0.0411 -0.949187,0.0411 -1.253072,-3.5e-4 z"
       id="path1439" />
    <path
       style="fill:#ff9955;fill-opacity:0.988304;stroke-width:0.0219797"
       d="m 7.0368682,287.38141 c 0,-2.18521 0.00505,-2.60729 0.033826,-2.8265 0.1170322,-0.89164 0.4658927,-1.71679 1.0176369,-2.40701 0.7678375,-0.96057 1.9103614,-1.60316 3.1340029,-1.76267 0.335749,-0.0437 0.905541,-0.0433 1.250508,0.001 2.14768,0.27607 3.860853,1.9907 4.141582,4.14515 0.04373,0.33559 0.0432,0.90465 -0.0011,1.24888 -0.277841,2.15588 -2.009361,3.86735 -4.187056,4.13854 -0.205556,0.0256 -0.72628,0.0314 -2.8207183,0.0314 h -2.568663 z m 5.0347658,-0.30971 c 0.809177,-0.10137 1.46157,-0.67891 1.655864,-1.46599 0.06563,-0.2659 0.06544,-0.64468 -4.81e-4,-0.91181 -0.08673,-0.35147 -0.231873,-0.61398 -0.486521,-0.87992 -0.380894,-0.39781 -0.840804,-0.59285 -1.397962,-0.59285 -0.564206,0 -1.023155,0.19783 -1.410963,0.60824 -0.282367,0.29879 -0.4609116,0.67879 -0.5122652,1.09022 -0.025231,0.20214 -0.032902,2.13621 -0.00857,2.16051 0.02421,0.0242 1.9608542,0.0164 2.1608972,-0.008 z"
       id="path1441" />
  </g>
</svg>
