<?xml version="1.0" standalone="no"?>
<!DOCTYPE svg PUBLIC "-//W3C//DTD SVG 20010904//EN"
 "http://www.w3.org/TR/2001/REC-SVG-20010904/DTD/svg10.dtd">
<svg version="1.0" xmlns="http://www.w3.org/2000/svg"
 width="84.000000pt" height="80.000000pt" viewBox="0 0 84.000000 80.000000"
 preserveAspectRatio="xMidYMid meet">
<metadata>
Created by potrace 1.10, written by Peter Selinger 2001-2011
</metadata>
<g transform="translate(0.000000,80.000000) scale(0.100000,-0.100000)"
fill="#000000" stroke="none">
<path d="M422 778 c-10 -10 24 -49 160 -185 l173 -173 -373 0 c-365 0 -372 0
-372 -20 0 -20 7 -20 372 -20 l373 0 -173 -173 c-149 -149 -171 -175 -158
-186 13 -11 44 16 210 186 l196 198 -193 193 c-105 105 -194 192 -197 192 -3
0 -11 -5 -18 -12z"/>
</g>
</svg>
