<?xml version="1.0" standalone="no"?>
<!DOCTYPE svg PUBLIC "-//W3C//DTD SVG 20010904//EN"
 "http://www.w3.org/TR/2001/REC-SVG-20010904/DTD/svg10.dtd">
<svg version="1.0" xmlns="http://www.w3.org/2000/svg"
 width="84.000000pt" height="80.000000pt" viewBox="0 0 84.000000 80.000000"
 preserveAspectRatio="xMidYMid meet">
<metadata>
Created by potrace 1.10, written by Peter Selinger 2001-2011
</metadata>
<g transform="translate(0.000000,80.000000) scale(0.100000,-0.100000)"
fill="#000000" stroke="none">
<path d="M200 595 l-195 -195 195 -195 c173 -173 196 -193 210 -180 13 14 -4
34 -153 183 -92 92 -167 169 -167 172 0 3 166 4 370 2 366 -2 370 -2 370 18 0
20 -5 20 -370 20 -203 0 -370 3 -370 7 0 4 75 83 166 174 146 146 179 189 146
189 -4 0 -95 -88 -202 -195z"/>
</g>
</svg>
