<svg width="223" height="49" viewBox="0 0 223 49" fill="none" xmlns="http://www.w3.org/2000/svg">
<g clip-path="url(#clip0_484_287)">
<path d="M63.478 32.4075C62.1165 30.8184 61.3223 28.4348 61.3223 25.2568C61.3223 22.0787 62.003 19.6951 63.478 18.1061C64.8395 16.517 66.8818 15.7225 69.4914 15.7225C70.399 15.7225 71.1933 15.836 71.9875 16.063C72.7817 16.29 73.349 16.6305 73.8028 16.971C74.2567 17.3115 74.7105 17.652 74.9374 18.1061C75.2778 18.4466 75.5047 18.7871 75.6182 19.0141L75.8451 19.3546V6.86925C75.9586 6.64224 75.9586 6.52874 76.072 6.41524C76.1855 6.30174 76.2989 6.18823 76.5259 6.18823C76.6393 6.18823 76.8662 6.30174 76.9797 6.41524C76.9797 6.52874 77.0932 6.64224 77.0932 6.86925V27.1863C77.0932 29.6834 76.4124 31.4994 75.0509 32.8615C73.6894 34.2235 71.874 34.791 69.4914 34.791C66.8818 34.791 64.953 33.9965 63.478 32.4075ZM62.6838 25.2568C62.6838 28.2078 63.2511 30.2509 64.3857 31.6129C65.5203 32.975 67.2222 33.656 69.4914 33.656C71.4202 33.656 73.0086 33.0885 74.1432 32.0669C75.2778 30.9319 75.8451 29.3429 75.8451 27.0728V21.3977C75.8451 21.2842 75.7316 21.0571 75.6182 20.9436C75.5047 20.7166 75.2778 20.3761 74.9374 19.8086C74.597 19.2411 74.1432 18.7871 73.6894 18.4466C73.2355 18.1061 72.6682 17.652 71.874 17.3115C71.0798 16.971 70.2856 16.8575 69.3779 16.8575C67.1087 16.8575 65.4068 17.5385 64.2722 18.9006C63.1376 20.2626 62.6838 22.4192 62.6838 25.2568Z" fill="white"/>
<path d="M81.064 29.3431C81.064 27.6405 81.7447 26.2785 82.9928 25.3705C84.2408 24.3489 86.0562 23.8949 88.3254 23.8949H94.3387V22.0789C94.3387 20.3763 93.8849 19.1278 92.8638 18.2198C91.8426 17.3117 90.4811 16.8577 88.5523 16.8577C87.5312 16.8577 86.6235 16.9712 85.9427 17.3117C85.1485 17.6523 84.6947 17.9928 84.2408 18.3333C83.9005 18.6738 83.4466 19.1278 83.1062 19.8088C83.1062 19.9223 82.9928 20.0358 82.7659 20.0358C82.6524 20.0358 82.4255 20.0358 82.4255 19.9223C82.312 19.8088 82.312 19.6953 82.312 19.5818C82.312 19.4683 82.312 19.3548 82.4255 19.2413C82.9928 18.3333 83.787 17.5388 84.9216 16.8577C85.9427 16.2902 87.3042 15.9497 88.7792 15.9497C91.1619 15.9497 92.8638 16.5172 93.9984 17.6523C95.133 18.7873 95.7003 20.3763 95.7003 22.4194V34.1102C95.7003 34.2237 95.7003 34.3372 95.5868 34.4507C95.4733 34.5642 95.3599 34.5642 95.2464 34.5642C95.133 34.5642 94.906 34.5642 94.7926 34.4507C94.6791 34.3372 94.6791 34.2237 94.6791 34.1102V31.8401C93.9984 32.8617 93.2041 33.6562 91.9561 34.1102C90.708 34.5642 89.2331 34.7912 87.8715 34.7912C85.7158 34.7912 84.0139 34.3372 82.7659 33.3157C81.5178 32.2942 81.064 31.0456 81.064 29.3431ZM82.312 29.3431C82.312 30.7051 82.7659 31.8401 83.6735 32.6347C84.5812 33.4292 86.0562 33.7697 87.8715 33.7697C89.0061 33.7697 90.1407 33.5427 91.0484 33.2022C91.9561 32.7482 92.7503 32.1807 93.4311 31.2726C93.9984 30.3646 94.3387 29.3431 94.3387 28.208V24.803H88.3254C86.51 24.803 85.0351 25.1435 83.9005 25.938C82.7659 26.7325 82.312 27.8675 82.312 29.3431Z" fill="white"/>
<path d="M97.7429 16.8577C97.7429 16.7442 97.7429 16.6307 97.8564 16.5172C97.9698 16.4037 98.0833 16.4037 98.1968 16.4037H100.693V11.5231C100.693 11.4096 100.806 11.1826 100.92 11.0691C101.033 11.0691 101.147 10.9556 101.26 10.9556C101.374 10.9556 101.601 11.0691 101.714 11.1826C101.827 11.2961 101.941 11.4096 101.941 11.6366V16.4037H105.458C105.572 16.4037 105.685 16.4037 105.799 16.5172C105.912 16.6307 105.912 16.7442 105.912 16.8577C105.912 16.9712 105.912 17.0847 105.799 17.1982C105.685 17.3117 105.572 17.3117 105.458 17.3117H101.941V29.7971C101.941 30.9321 102.281 31.8401 102.849 32.5212C103.416 33.2022 104.21 33.4292 105.231 33.4292C105.345 33.4292 105.458 33.4292 105.572 33.5427C105.685 33.6562 105.685 33.7697 105.685 33.8832C105.685 33.9967 105.685 34.1102 105.572 34.2237C105.458 34.3372 105.345 34.3372 105.231 34.3372C103.87 34.3372 102.735 33.8832 101.941 33.0887C101.147 32.1807 100.806 31.1591 100.806 29.7971V17.3117H98.3102C98.1968 17.3117 98.0833 17.3117 97.9698 17.1982C97.7429 17.1982 97.7429 16.9712 97.7429 16.8577Z" fill="white"/>
<path d="M108.748 29.3429C108.748 27.6403 109.429 26.2783 110.677 25.3702C111.925 24.3487 113.741 23.8947 116.01 23.8947H122.023V22.0787C122.023 20.3761 121.569 19.1276 120.548 18.2195C119.527 17.3115 118.165 16.8575 116.237 16.8575C115.215 16.8575 114.308 16.971 113.627 17.3115C112.833 17.652 112.379 17.9925 111.925 18.3331C111.585 18.6736 111.131 19.1276 110.791 19.8086C110.677 20.0356 110.564 20.1491 110.337 20.1491C110.223 20.1491 109.996 20.1491 109.996 20.0356C109.883 19.9221 109.883 19.8086 109.883 19.6951C109.883 19.5816 109.883 19.4681 109.996 19.3546C110.564 18.4466 111.358 17.652 112.492 16.971C113.514 16.4035 114.875 16.063 116.35 16.063C118.733 16.063 120.435 16.6305 121.569 17.7655C122.704 18.9006 123.271 20.4896 123.271 22.5327V34.2235C123.271 34.337 123.271 34.4505 123.158 34.564C123.044 34.6775 122.931 34.6775 122.817 34.6775C122.704 34.6775 122.477 34.6775 122.363 34.564C122.25 34.4505 122.25 34.337 122.25 34.2235V31.9534C121.569 32.975 120.775 33.7695 119.527 34.2235C118.279 34.6775 117.031 34.791 115.669 34.791C113.514 34.791 111.812 34.337 110.564 33.3155C109.316 32.2939 108.748 31.0454 108.748 29.3429ZM109.996 29.3429C109.996 30.7049 110.45 31.8399 111.358 32.6344C112.266 33.429 113.741 33.7695 115.556 33.7695C116.69 33.7695 117.825 33.5425 118.733 33.202C119.64 32.7479 120.435 32.1804 121.115 31.2724C121.683 30.3644 122.023 29.3429 122.023 28.2078V24.8027H116.01C114.194 24.8027 112.719 25.1432 111.585 25.9378C110.564 26.7323 109.996 27.8673 109.996 29.3429Z" fill="white"/>
<path d="M128.263 30.8184C128.263 30.2509 128.49 29.9103 128.83 29.4563C129.171 29.1158 129.625 28.8888 130.192 28.8888C130.646 28.8888 130.986 29.0023 131.44 29.3428C132.802 30.3644 134.163 30.9319 135.752 30.9319C137.68 30.9319 138.701 30.3644 138.701 29.3428C138.701 29.0023 138.588 28.6618 138.248 28.3213C138.021 27.9808 137.567 27.7538 137.113 27.6403C136.659 27.4133 136.092 27.2998 135.525 27.0728C134.957 26.8458 134.39 26.7323 133.709 26.5053C133.142 26.2783 132.461 26.0512 131.894 25.8242C131.327 25.4837 130.759 25.1432 130.305 24.8027C129.852 24.4622 129.511 23.8947 129.171 23.3272C128.944 22.6461 128.717 21.9651 128.717 21.1706C128.717 19.4681 129.284 18.2195 130.532 17.3115C131.78 16.4035 133.369 15.9495 135.298 15.9495C136.659 15.9495 137.907 16.1765 139.042 16.6305C140.176 17.0845 141.084 17.652 141.651 18.333C141.878 18.6735 141.992 19.014 141.992 19.4681C141.992 20.0356 141.765 20.3761 141.424 20.8301C141.084 21.1706 140.63 21.3976 140.063 21.3976C139.723 21.3976 139.269 21.1706 138.701 20.8301C137.567 20.0356 136.319 19.5816 135.184 19.5816C134.39 19.5816 133.823 19.6951 133.482 19.9221C133.028 20.1491 132.915 20.6031 132.915 21.0571C132.915 21.3976 133.142 21.7381 133.482 22.0786C133.823 22.4191 134.277 22.6461 134.844 22.8732C135.411 23.1002 136.092 23.3272 136.773 23.4407C137.453 23.6677 138.134 23.8947 138.815 24.2352C139.496 24.5757 140.176 24.9162 140.63 25.2567C141.198 25.7107 141.651 26.1647 141.992 26.8458C142.332 27.5268 142.559 28.3213 142.559 29.2293C142.559 31.0454 141.878 32.4074 140.517 33.4289C139.155 34.4505 137.453 34.9045 135.298 34.9045C133.709 34.9045 132.348 34.564 131.1 33.9965C129.852 33.4289 128.944 32.7479 128.377 32.0669C128.377 31.6129 128.263 31.2724 128.263 30.8184Z" fill="white"/>
<path d="M144.147 41.715C143.807 41.3745 143.58 40.8069 143.58 40.2394C143.58 39.6719 143.807 39.2179 144.147 38.7639C144.488 38.3099 145.055 38.1964 145.622 38.1964C146.757 38.1964 147.778 37.7424 148.459 36.9478C149.14 36.1533 149.934 34.7913 150.615 32.9752L144.601 19.0143C144.488 18.7873 144.488 18.4468 144.488 18.2198C144.488 17.6523 144.715 17.0848 145.055 16.7443C145.509 16.2903 145.963 16.1768 146.53 16.1768C147.097 16.1768 147.438 16.2903 147.778 16.6308C148.118 16.8578 148.345 17.1983 148.459 17.5388L152.77 28.4351L157.082 17.5388C157.195 17.1983 157.422 16.8578 157.763 16.6308C158.103 16.4038 158.557 16.1768 159.011 16.1768C159.578 16.1768 160.145 16.4038 160.486 16.7443C160.939 17.1983 161.053 17.6523 161.053 18.2198C161.053 18.5603 161.053 18.7873 160.939 19.0143L153.565 35.5858C151.636 40.0124 148.913 42.169 145.395 42.169C145.055 42.2825 144.601 42.169 144.147 41.715Z" fill="white"/>
<path d="M163.095 32.6344V18.333C163.095 17.7655 163.322 17.198 163.662 16.8575C164.116 16.4035 164.57 16.29 165.137 16.29C165.705 16.29 166.272 16.517 166.612 16.8575C167.066 17.3115 167.18 17.7655 167.18 18.333C167.633 17.652 168.314 17.0845 169.108 16.6305C169.903 16.1765 171.037 15.9495 172.172 15.9495C176.597 15.9495 178.752 18.2195 178.752 22.7597V32.6344C178.752 33.2019 178.525 33.656 178.072 34.11C177.618 34.4505 177.164 34.6775 176.597 34.6775C175.916 34.6775 175.462 34.4505 175.122 34.11C174.781 33.7695 174.554 33.2019 174.554 32.6344V23.5542C174.554 21.0571 173.42 19.8086 171.037 19.8086C168.428 19.8086 167.066 21.1706 167.066 23.8947V32.6344C167.066 33.2019 166.839 33.656 166.499 34.11C166.045 34.4505 165.591 34.6775 165.024 34.6775C164.456 34.6775 163.889 34.4505 163.549 34.11C163.322 33.7695 163.095 33.2019 163.095 32.6344Z" fill="white"/>
<path d="M181.93 19.5819C181.589 19.2413 181.362 18.7873 181.362 18.3333C181.362 17.8793 181.589 17.4253 181.93 17.0848C182.27 16.7443 182.724 16.5173 183.178 16.5173H184.085V13.2257C184.085 12.6582 184.312 12.2041 184.766 11.7501C185.22 11.2961 185.674 11.1826 186.241 11.1826C186.808 11.1826 187.262 11.4096 187.716 11.7501C188.17 12.2041 188.283 12.6582 188.283 13.2257V16.5173H190.099C190.553 16.5173 191.006 16.7443 191.347 17.0848C191.687 17.4253 191.914 17.8793 191.914 18.3333C191.914 18.7873 191.687 19.2413 191.347 19.5819C191.006 19.9224 190.553 20.1494 190.099 20.1494H188.283V29.6836C188.283 30.1376 188.397 30.4782 188.737 30.7052C189.078 30.9322 189.418 31.0457 189.758 31.0457C190.326 31.0457 190.666 31.2727 191.12 31.6132C191.46 31.9537 191.687 32.4077 191.687 32.8617C191.687 33.3157 191.46 33.7697 191.12 34.1103C190.779 34.4508 190.326 34.6778 189.758 34.6778C188.056 34.6778 186.695 34.2238 185.674 33.2022C184.653 32.1807 184.085 30.9322 184.085 29.3431V20.0359H183.178C182.724 20.1494 182.27 19.9224 181.93 19.5819Z" fill="white"/>
<path d="M194.75 32.6345V8.45834C194.75 7.89082 194.977 7.32331 195.318 6.9828C195.771 6.52879 196.225 6.41528 196.793 6.41528C197.36 6.41528 197.927 6.64229 198.267 6.9828C198.721 7.43681 198.835 7.89082 198.835 8.45834V18.3331C199.289 17.6521 199.969 17.0846 200.764 16.6306C201.558 16.1766 202.692 15.9495 203.827 15.9495C208.252 15.9495 210.408 18.2196 210.408 22.7597V32.6345C210.408 33.202 210.181 33.656 209.727 34.11C209.273 34.4506 208.819 34.6776 208.252 34.6776C207.571 34.6776 207.117 34.4506 206.777 34.11C206.437 33.7695 206.21 33.202 206.21 32.6345V23.5543C206.21 21.0572 205.075 19.8087 202.692 19.8087C200.083 19.8087 198.721 21.1707 198.721 23.8948V32.6345C198.721 33.202 198.494 33.656 198.154 34.11C197.7 34.4506 197.246 34.6776 196.679 34.6776C196.112 34.6776 195.544 34.4506 195.204 34.11C194.977 33.7695 194.75 33.202 194.75 32.6345Z" fill="white"/>
<path d="M219.882 27.958C221.614 27.958 223 29.4599 223 31.0773C223 32.8102 221.614 34.1965 219.882 34.1965C218.15 34.1965 216.764 32.8102 216.764 31.0773C216.648 29.3443 218.034 27.958 219.882 27.958ZM219.882 28.4201C218.381 28.4201 217.341 29.5754 217.341 31.0773C217.341 32.5791 218.496 33.7344 219.997 33.7344C221.383 33.7344 222.538 32.5791 222.538 31.0773C222.423 29.6909 221.383 28.4201 219.882 28.4201ZM219.997 29.2288C220.575 29.2288 221.268 29.4599 221.268 30.2686C221.268 30.6152 221.152 30.9617 220.69 31.1928C221.037 31.3083 221.152 31.5394 221.268 32.0015C221.268 32.6947 221.268 32.6947 221.383 32.9257H220.575C220.459 32.8102 220.459 32.3481 220.459 32.117C220.459 31.886 220.344 31.5394 219.766 31.5394H219.189V32.9257H218.496V29.3443H219.997V29.2288ZM219.189 29.8065V30.9617H219.766C219.997 30.9617 220.575 30.9617 220.575 30.3841C220.575 29.8065 220.113 29.8065 219.882 29.8065H219.189Z" fill="white"/>
<path d="M24.3673 30.615C27.8114 30.615 30.6034 27.8219 30.6034 24.3765C30.6034 20.931 27.8114 18.1379 24.3673 18.1379C20.9231 18.1379 18.1311 20.931 18.1311 24.3765C18.1311 27.8219 20.9231 30.615 24.3673 30.615Z" fill="white"/>
<path d="M1.6167 15.5963H7.85285C12.0103 15.5963 15.3593 12.246 15.3593 8.08698V1.84844V1.73291C9.12317 4.15901 4.04187 9.24227 1.6167 15.5963Z" fill="white"/>
<path d="M24.3672 15.5963C27.8318 15.5963 30.6034 12.8237 30.6034 9.35781V2.07951C30.6034 1.6174 30.6034 1.27081 30.4879 0.8087C28.5247 0.231057 26.446 0 24.3672 0C22.2885 0 20.3253 0.231057 18.3621 0.693171C18.2466 1.15529 18.2466 1.50187 18.2466 1.96398V9.35781C18.2466 12.8237 21.0182 15.5963 24.3672 15.5963Z" fill="white"/>
<path d="M40.766 15.5964H47.0021C44.577 9.24231 39.4957 4.15906 33.144 1.61743V1.73296V8.08703C33.2595 12.2461 36.6086 15.5964 40.766 15.5964Z" fill="white"/>
<path d="M9.23874 30.4995C12.7033 30.4995 15.4749 27.7269 15.4749 24.261C15.4749 20.7951 12.7033 18.0225 9.23874 18.0225H1.84775C1.50129 18.0225 1.15484 18.0225 0.692905 18.138C0.230968 20.2175 0 22.297 0 24.3765C0 26.456 0.230968 28.5356 0.808389 30.4995C1.15484 30.6151 1.50129 30.6151 1.96323 30.6151H9.23874V30.4995Z" fill="white"/>
<path d="M39.4957 30.4995H46.8867C47.2331 30.4995 47.5796 30.4995 48.0415 30.384C48.5034 28.42 48.8499 26.456 48.8499 24.261C48.8499 22.1815 48.6189 20.102 48.0415 18.138C47.695 18.0225 47.3486 18.0225 46.8867 18.0225H39.4957C36.0311 18.0225 33.2595 20.7951 33.2595 24.261C33.2595 27.8424 36.0311 30.4995 39.4957 30.4995Z" fill="white"/>
<path d="M15.4748 47.0202V46.9046V40.6661C15.4748 36.5071 12.1258 33.1567 7.96833 33.1567H1.6167C4.04187 39.5108 9.12317 44.5941 15.4748 47.0202Z" fill="white"/>
<path d="M30.4879 47.9444C30.6034 47.4823 30.6034 47.1357 30.6034 46.6736V39.2798C30.6034 35.8139 27.8318 33.0413 24.3673 33.0413C20.9027 33.0413 18.1311 35.8139 18.1311 39.2798V46.6736C18.1311 47.1357 18.1311 47.5979 18.2466 47.9444C20.2098 48.4066 22.1731 48.6376 24.2518 48.6376C26.446 48.7531 28.5247 48.5221 30.4879 47.9444Z" fill="white"/>
<path d="M47.1176 33.1567H40.8815C36.724 33.1567 33.375 36.5071 33.375 40.6661V46.9046V47.0202C39.6111 44.5941 44.6925 39.5108 47.1176 33.1567Z" fill="white"/>
</g>
<defs>
<clipPath id="clip0_484_287">
<rect width="223" height="48.753" fill="white"/>
</clipPath>
</defs>
</svg>
