<svg width="37" height="37" viewBox="0 0 37 37" fill="none" xmlns="http://www.w3.org/2000/svg">
<g clip-path="url(#clip0_287_732)">
<path d="M30.8333 9.24984H18.4999L16.3262 7.07609C15.7403 6.49025 14.9541 6.1665 14.137 6.1665H6.16659C4.45534 6.1665 3.09867 7.53859 3.09867 9.24984L3.08325 27.7498C3.08325 29.4611 4.45534 30.8332 6.16659 30.8332H30.8333C32.5291 30.8332 33.9166 29.4457 33.9166 27.7498V12.3332C33.9166 10.6373 32.5291 9.24984 30.8333 9.24984ZM27.7499 21.5832H24.6666V24.6665C24.6666 25.5144 23.9728 26.2082 23.1249 26.2082C22.277 26.2082 21.5833 25.5144 21.5833 24.6665V21.5832H18.4999C17.652 21.5832 16.9583 20.8894 16.9583 20.0415C16.9583 19.1936 17.652 18.4998 18.4999 18.4998H21.5833V15.4165C21.5833 14.5686 22.277 13.8748 23.1249 13.8748C23.9728 13.8748 24.6666 14.5686 24.6666 15.4165V18.4998H27.7499C28.5978 18.4998 29.2916 19.1936 29.2916 20.0415C29.2916 20.8894 28.5978 21.5832 27.7499 21.5832Z" fill="white"/>
</g>
<defs>
<clipPath id="clip0_287_732">
<path d="M0 0H27C32.5228 0 37 4.47715 37 10V27C37 32.5228 32.5228 37 27 37H0V0Z" fill="white"/>
</clipPath>
</defs>
</svg>
