<?xml version="1.0" encoding="UTF-8"?><svg id="Layer_1" xmlns="http://www.w3.org/2000/svg" viewBox="0 0 28.8 24"><defs><style>.cls-1{fill:#6333eb;strokeEidth:0px;}</style></defs><path class="cls-1" d="m14.41,24c-3.95,0-7.9,0-11.85,0-1.3,0-2.21-.7-2.5-1.86-.35-1.43.72-2.86,2.2-2.94.07,0,.15,0,.22,0,7.94,0,15.88,0,23.82,0,1.1,0,1.99.62,2.34,1.61.34.97.04,2-.76,2.66-.5.41-1.09.54-1.73.54-3.92,0-7.84,0-11.76,0Z"/><path class="cls-1" d="m14.4,0c3.95,0,7.9,0,11.85,0,1.24,0,2.22.74,2.47,1.85.34,1.5-.71,2.88-2.27,2.96-.09,0-.18,0-.26,0-7.87,0-15.74,0-23.61,0-1.43,0-2.5-.93-2.58-2.24C-.08,1.14,1.01,0,2.51,0c3.33,0,6.66,0,10,0C13.14,0,13.77,0,14.4,0Z"/><path class="cls-1" d="m14.38,9.6c3.98,0,7.96,0,11.93,0,1.77,0,2.94,1.69,2.3,3.29-.37.94-1.23,1.51-2.32,1.51-1.54,0-3.08,0-4.62,0-6.36,0-12.71,0-19.07,0-1.26,0-2.2-.66-2.51-1.74-.44-1.56.7-3.06,2.35-3.06,3.98,0,7.96,0,11.93,0Z"/></svg>